#!OML:ASF H:\ManfredETheater\Project 1\Capture day 1\Session 1\subject.ASF
:FULLY-SPECIFIED
:DEGREES
138
root -22.3669 15.4719 22.2841 -12.3489 -45.9512 3.69934
lowerback 19.7712 -1.33751 -1.48128
upperback 3.01657 -2.07232 1.09565
thorax -7.69388 -0.986089 2.57043
lowerneck -17.3486 -1.12615 -3.08567
upperneck 17.5362 -0.631236 -0.654873
head 8.32484 -0.592191 0.208193
rclavicle 4.08006e-014 -2.14687e-014
rhumerus -53.4325 1.75939 -87.5168
rradius 97.6207
rwrist -7.96816
rhand -30.5792 12.3856
rfingers 7.12502
rthumb -3.87682 -17.5589
lclavicle 4.08006e-014 -2.14687e-014
lhumerus -61.6242 -7.57289 95.6211
lradius 114.487
lwrist 13.3283
lhand -17.6372 -9.26115
lfingers 7.12502
lthumb 8.62041 20.5429
rfemur -36.9134 -9.25808 17.4388
rtibia 94.4885
rfoot -10.7182 -11.3648
rtoes -26.0398
lfemur -39.0228 -3.87421 -23.7145
ltibia 63.7791
lfoot -9.66692 -4.33737
ltoes -3.26701
139
root -22.6763 15.4138 22.6638 -12.5414 -45.8687 4.01184
lowerback 19.6281 -1.47607 -1.48272
upperback 3.01715 -2.25526 1.06573
thorax -7.60783 -1.07609 2.57977
lowerneck -17.5758 -1.03517 -3.1362
upperneck 17.6541 -0.456589 -0.777402
head 8.40316 -0.528392 0.195277
rclavicle 8.99004e-014 1.59028e-015
rhumerus -53.7128 0.261893 -86.8676
rradius 96.547
rwrist -8.19353
rhand -31.0981 12.0689
rfingers 7.12502
rthumb -4.37784 -17.8658
lclavicle 8.99004e-014 1.59028e-015
lhumerus -59.9797 -8.33865 95.7548
lradius 113.913
lwrist 12.8099
lhand -17.9523 -9.24591
lfingers 7.12502
lthumb 8.31634 20.5704
rfemur -39.1864 -8.95624 17.2401
rtibia 92.2806
rfoot -11.0486 -11.418
rtoes -27.1651
lfemur -38.9458 -4.03795 -24.3209
ltibia 66.8914
lfoot -11.462 -4.06425
ltoes -4.10393
140
root -22.9836 15.3715 23.0407 -12.59 -45.9388 4.02146
lowerback 19.5416 -1.5796 -1.25525
upperback 3.04296 -2.33967 1.11567
thorax -7.53574 -1.12416 2.52132
lowerneck -17.7672 -0.953794 -3.20319
upperneck 17.7902 -0.284884 -0.931607
head 8.48181 -0.471352 0.174312
rclavicle 7.86193e-014 -2.94201e-014
rhumerus -54.0684 -1.03761 -86.2141
rradius 95.6987
rwrist -8.35092
rhand -31.5074 11.8496
rfingers 7.12502
rthumb -4.77308 -18.0766
lclavicle 7.86193e-014 -2.94201e-014
lhumerus -58.2846 -9.08161 95.8783
lradius 113.212
lwrist 12.3169
lhand -18.2597 -9.16735
lfingers 7.12502
lthumb 8.01968 20.6605
rfemur -41.0765 -8.41317 17.3062
rtibia 89.3589
rfoot -11.1021 -11.3103
rtoes -28.3936
lfemur -38.5931 -3.95448 -24.6649
ltibia 69.6933
lfoot -12.9615 -4.00975
ltoes -4.90043
141
root -23.2884 15.3507 23.4155 -12.5912 -46.1402 3.80582
lowerback 19.5497 -1.65436 -0.865912
upperback 3.09843 -2.35015 1.22763
thorax -7.49006 -1.14026 2.42218
lowerneck -17.9101 -0.865619 -3.25179
upperneck 17.9411 -0.0993065 -1.13741
head 8.55725 -0.412945 0.134879
rclavicle 1.70955e-014 1.03368e-014
rhumerus -54.4876 -2.0696 -85.6015
rradius 95.1285
rwrist -8.48349
rhand -31.8021 11.7158
rfingers 7.12502
rthumb -5.05765 -18.2038
lclavicle 1.70955e-014 1.03368e-014
lhumerus -56.6036 -9.75097 95.9852
lradius 112.447
lwrist 11.8294
lhand -18.5844 -9.04963
lfingers 7.12502
lthumb 7.70627 20.79
rfemur -42.4485 -7.70325 17.5218
rtibia 85.733
rfoot -10.8169 -10.936
rtoes -29.5181
lfemur -37.8949 -3.62191 -24.8099
ltibia 72.1291
lfoot -14.1004 -4.16408
ltoes -5.63919
142
root -23.5902 15.3548 23.7881 -12.6497 -46.4251 3.53203
lowerback 19.6318 -1.70495 -0.448156
upperback 3.17178 -2.32145 1.37505
thorax -7.46595 -1.13777 2.33791
lowerneck -17.9874 -0.756658 -3.27349
upperneck 18.1024 0.1196 -1.41118
head 8.625 -0.345204 0.0724126
rclavicle 4.63168e-014 7.95139e-016
rhumerus -54.9708 -2.76588 -85.0631
rradius 94.8765
rwrist -8.63558
rhand -31.9848 11.6696
rfingers 7.12502
rthumb -5.23401 -18.2457
lclavicle 4.63168e-014 7.95139e-016
lhumerus -55.0048 -10.3013 96.0932
lradius 111.694
lwrist 11.3185
lhand -18.9112 -8.91371
lfingers 7.12502
lthumb 7.39085 20.9372
rfemur -43.2784 -6.91347 17.7335
rtibia 81.4638
rfoot -10.0672 -10.2914
rtoes -30.505
lfemur -36.8746 -3.07421 -24.8827
ltibia 74.1842
lfoot -14.8208 -4.52115
ltoes -6.31535
143
root -23.8898 15.3815 24.1583 -12.85 -46.7498 3.42117
lowerback 19.7254 -1.72491 -0.183525
upperback 3.23091 -2.28393 1.52211
thorax -7.45753 -1.12667 2.33904
lowerneck -18.001 -0.61699 -3.26522
upperneck 18.2784 0.383248 -1.74539
head 8.68731 -0.261875 -0.00975132
rclavicle 1.44119e-014 0
rhumerus -55.5185 -3.09083 -84.6243
rradius 94.9596
rwrist -8.84626
rhand -32.0179 11.7092
rfingers 7.12502
rthumb -5.26603 -18.2054
lclavicle 1.44119e-014 0
lhumerus -53.5602 -10.7122 96.2277
lradius 111.043
lwrist 10.8322
lhand -19.2419 -8.78577
lfingers 7.12502
lthumb 7.07161 21.0761
rfemur -43.6802 -6.14184 17.7917
rtibia 76.6665
rfoot -8.70177 -9.39574
rtoes -31.3553
lfemur -35.6704 -2.361 -25.0343
ltibia 75.8958
lfoot -15.0338 -5.07844
ltoes -7.01244
144
root -24.1891 15.4205 24.527 -13.176 -47.0674 3.50625
lowerback 19.7846 -1.73238 -0.0870522
upperback 3.27305 -2.26618 1.64877
thorax -7.44245 -1.12087 2.41787
lowerneck -17.9893 -0.446104 -3.21535
upperneck 18.4776 0.688098 -2.1237
head 8.75438 -0.162306 -0.108642
rclavicle -1.04362e-014 1.90833e-014
rhumerus -56.089 -3.0805 -84.3145
rradius 95.3441
rwrist -9.10595
rhand -31.9258 11.8287
rfingers 7.12502
rthumb -5.17707 -18.088
lclavicle -1.04362e-014 1.90833e-014
lhumerus -52.2948 -11.0047 96.3879
lradius 110.567
lwrist 10.4045
lhand -19.5457 -8.70062
lfingers 7.12502
lthumb 6.77843 21.1709
rfemur -43.7498 -5.44154 17.68
rtibia 71.5068
rfoot -6.77273 -8.28458
rtoes -31.8443
lfemur -34.4307 -1.55547 -25.2757
ltibia 77.3695
lfoot -14.6869 -5.85934
ltoes -7.68408
145
root -24.4905 15.462 24.8951 -13.5441 -47.3516 3.7281
lowerback 19.7678 -1.74751 -0.121259
upperback 3.28686 -2.28637 1.76035
thorax -7.41155 -1.12996 2.56203
lowerneck -17.9777 -0.247018 -3.13689
upperneck 18.7094 1.02809 -2.51117
head 8.83437 -0.0468247 -0.211148
rclavicle -2.10712e-014 -2.54444e-014
rhumerus -56.6696 -2.77135 -84.1333
rradius 95.9819
rwrist -9.37016
rhand -31.7582 12.02
rfingers 7.12502
rthumb -5.01531 -17.9006
lclavicle -2.10712e-014 -2.54444e-014
lhumerus -51.2369 -11.2053 96.5813
lradius 110.324
lwrist 10.0859
lhand -19.808 -8.67595
lfingers 7.12502
lthumb 6.52513 21.2035
rfemur -43.5931 -4.8522 17.4713
rtibia 66.1534
rfoot -4.34392 -7.07441
rtoes -32.098
lfemur -33.2941 -0.725137 -25.546
ltibia 78.7187
lfoot -13.7753 -6.88304
ltoes -8.25353
146
root -24.7959 15.4992 25.2626 -13.8523 -47.5735 3.97088
lowerback 19.6511 -1.80314 -0.215676
upperback 3.26834 -2.37159 1.87288
thorax -7.35662 -1.16873 2.75443
lowerneck -17.9672 -0.0167033 -3.03777
upperneck 18.9671 1.40646 -2.8916
head 8.92554 0.0873182 -0.309984
rclavicle 1.92821e-014 3.02153e-014
rhumerus -57.2495 -2.185 -84.0788
rradius 96.8072
rwrist -9.5684
rhand -31.5101 12.2776
rfingers 7.12502
rthumb -4.77567 -17.6486
lclavicle 1.92821e-014 3.02153e-014
lhumerus -50.3968 -11.3155 96.8049
lradius 110.343
lwrist 9.9231
lhand -20.0172 -8.72092
lfingers 7.12502
lthumb 6.32319 21.1647
rfemur -43.2747 -4.38933 17.2588
rtibia 60.7757
rfoot -1.57123 -5.85521
rtoes -32.5385
lfemur -32.3442 0.0704218 -25.7498
ltibia 80.0326
lfoot -12.3379 -8.1648
ltoes -8.50534
147
root -25.106 15.5291 25.6292 -14.0316 -47.7169 4.12903
lowerback 19.4327 -1.91412 -0.297149
upperback 3.21965 -2.52538 1.99595
thorax -7.27583 -1.24078 2.96374
lowerneck -17.9274 0.230823 -2.94474
upperneck 19.2291 1.80035 -3.2245
head 9.01453 0.232817 -0.389678
rclavicle -6.85807e-014 3.18055e-015
rhumerus -57.8256 -1.39412 -84.1398
rradius 97.7558
rwrist -9.64365
rhand -31.2394 12.5538
rfingers 7.12502
rthumb -4.51429 -17.3781
lclavicle -6.85807e-014 3.18055e-015
lhumerus -49.7662 -11.3781 97.0513
lradius 110.621
lwrist 9.93214
lhand -20.154 -8.83011
lfingers 7.12502
lthumb 6.19113 21.0594
rfemur -42.8214 -4.07691 17.1195
rtibia 55.534
rfoot 1.27683 -4.74491
rtoes -33.1141
lfemur -31.6019 0.780153 -25.8067
ltibia 81.3625
lfoot -10.436 -9.69739
ltoes -8.14962
148
root -25.4213 15.5478 25.9942 -14.0619 -47.7569 4.13777
lowerback 19.1437 -2.08349 -0.326049
upperback 3.14313 -2.74349 2.13406
thorax -7.18408 -1.34495 3.1714
lowerneck -17.8534 0.479003 -2.85496
upperneck 19.4975 2.1844 -3.50394
head 9.10067 0.378881 -0.451904
rclavicle 8.82604e-014 -1.74931e-014
rhumerus -58.4029 -0.490488 -84.2754
rradius 98.7574
rwrist -9.50296
rhand -30.9166 12.8423
rfingers 7.12502
rthumb -4.20257 -17.096
lclavicle 8.82604e-014 -1.74931e-014
lhumerus -49.3222 -11.4474 97.3131
lradius 111.12
lwrist 10.0824
lhand -20.206 -8.98706
lfingers 7.12502
lthumb 6.14097 20.9039
rfemur -42.2786 -3.91928 17.0936
rtibia 50.669
rfoot 4.01472 -3.84151
rtoes -34.0233
lfemur -31.0234 1.38013 -25.6865
ltibia 82.7536
lfoot -8.37277 -11.324
ltoes -7.77641
149
root -25.7413 15.5556 26.3566 -13.9384 -47.6971 3.93221
lowerback 18.8199 -2.30905 -0.254712
upperback 3.05532 -3.01462 2.28955
thorax -7.08522 -1.47731 3.3502
lowerneck -17.7346 0.715246 -2.77723
upperneck 19.7582 2.53742 -3.70831
head 9.17597 0.51824 -0.490504
rclavicle 2.88238e-014 -3.18055e-014
rhumerus -58.98 0.473414 -84.4793
rradius 99.7775
rwrist -9.18302
rhand -30.5906 13.1132
rfingers 7.12502
rthumb -3.8878 -16.8311
lclavicle 2.88238e-014 -3.18055e-014
lhumerus -49.0222 -11.5575 97.5765
lradius 111.784
lwrist 10.2938
lhand -20.2017 -9.18156
lfingers 7.12502
lthumb 6.14508 20.7093
rfemur -41.6238 -3.89365 17.2147
rtibia 46.2961
rfoot 6.54337 -3.20496
rtoes -35.0194
lfemur -30.5852 1.83863 -25.3361
ltibia 84.1789
lfoot -6.34605 -12.9418
ltoes -7.08196
